<?xml version="1.0" encoding="UTF-8" standalone="no"?>
<!-- Created with Inkscape (http://www.inkscape.org/) -->

<svg
   width="514"
   height="514"
   viewBox="0 0 135.99583 135.99584"
   version="1.1"
   id="svg1"
   inkscape:version="1.4.4 (dcaf3e7d9e, 2026-05-05)"
   sodipodi:docname="pixel_grid_with_rainbow_rasterized_triangle.svg"
   inkscape:export-filename="../pixel_grid_with_rasterized_triangle.png"
   inkscape:export-xdpi="192"
   inkscape:export-ydpi="192"
   xmlns:inkscape="http://www.inkscape.org/namespaces/inkscape"
   xmlns:sodipodi="http://sodipodi.sourceforge.net/DTD/sodipodi-0.dtd"
   xmlns="http://www.w3.org/2000/svg"
   xmlns:svg="http://www.w3.org/2000/svg">
  <sodipodi:namedview
     id="namedview1"
     pagecolor="#505050"
     bordercolor="#ffffff"
     borderopacity="1"
     inkscape:showpageshadow="0"
     inkscape:pageopacity="0"
     inkscape:pagecheckerboard="1"
     inkscape:deskcolor="#505050"
     inkscape:document-units="mm"
     showgrid="true"
     inkscape:zoom="1.2079783"
     inkscape:cx="225.99743"
     inkscape:cy="264.07759"
     inkscape:window-width="1692"
     inkscape:window-height="1059"
     inkscape:window-x="0"
     inkscape:window-y="0"
     inkscape:window-maximized="1"
     inkscape:current-layer="layer1">
    <inkscape:grid
       id="grid1"
       units="px"
       originx="0.52916667"
       originy="0.52916667"
       spacingx="0.26458334"
       spacingy="0.26458334"
       empcolor="#0099e5"
       empopacity="0.30196078"
       color="#0099e5"
       opacity="0.14901961"
       empspacing="1"
       enabled="true"
       visible="true" />
  </sodipodi:namedview>
  <defs
     id="defs1" />
  <g
     inkscape:label="Layer 1"
     inkscape:groupmode="layer"
     id="layer1">
    <rect
       style="fill:#1a1a1a;fill-opacity:1;stroke:none;stroke-width:2.11668;stroke-dasharray:none"
       id="rect64"
       width="135.99583"
       height="135.99583"
       x="0"
       y="0"
       rx="1.1470617"
       ry="3.5851421e-08" />
    <path
       d="M 135.73124,135.73122 V 0.26458333 M 127.26457,135.73122 V 0.26458333 M 118.79791,135.73122 V 0.26458333 M 110.33124,135.73122 V 0.26458333 M 101.86457,135.73122 V 0.26458333 M 93.397911,135.73122 V 0.26458333 M 84.931244,135.73122 V 0.26458333 M 76.464578,135.73122 V 0.26458333 M 67.997912,135.73122 V 0.26458333 M 59.531246,135.73122 V 0.26458333 M 51.064579,135.73122 V 0.26458333 M 42.597913,135.73122 V 0.26458333 M 34.131243,135.73122 V 0.26458333 M 25.664583,135.73122 V 0.26458333 M 17.197913,135.73122 V 0.26458333 M 8.7312533,135.73122 V 0.26458333 M 135.73124,135.73122 H 0.26458333 M 135.73124,127.26455 H 0.26458333 M 135.73124,118.79789 H 0.26458333 M 135.73124,110.33122 H 0.26458333 M 135.73124,101.86456 H 0.26458333 M 135.73124,93.397894 H 0.26458333 M 135.73124,84.931224 H 0.26458333 M 135.73124,76.464564 H 0.26458333 M 135.73124,67.997894 H 0.26458333 M 135.73124,59.531224 H 0.26458333 M 135.73124,51.064564 H 0.26458333 M 135.73124,42.597894 H 0.26458333 M 135.73124,34.131234 H 0.26458333 M 135.73124,25.664584 H 0.26458333 M 135.73124,17.197914 H 0.26458333 M 135.73124,8.7312433 H 0.26458333"
       style="fill:none;stroke:#f9f9f9;stroke-width:0.264583px"
       id="path3-1-3" />
    <rect
       style="fill:#0000ff;fill-opacity:1;stroke:none;stroke-width:1.85073;stroke-dasharray:none"
       id="rect7"
       width="8.2020836"
       height="8.2020836"
       x="59.795837"
       y="8.9958334"
       rx="0.88314468"
       ry="3.5599584e-08" />
    <rect
       style="fill:#ff5555;fill-opacity:1;stroke:none;stroke-width:1.85073;stroke-dasharray:none"
       id="rect7-5"
       width="8.2020836"
       height="8.2020836"
       x="68.262497"
       y="8.9958334"
       rx="0.88314468"
       ry="3.5599584e-08" />
    <rect
       style="fill:#ff0000;fill-opacity:1;stroke:none;stroke-width:1.85073;stroke-dasharray:none"
       id="rect7-5-9"
       width="8.2020836"
       height="8.2020836"
       x="68.262497"
       y="17.4625"
       rx="0.88314468"
       ry="3.5599584e-08" />
    <rect
       style="fill:#d40000;fill-opacity:1;stroke:none;stroke-width:1.85073;stroke-dasharray:none"
       id="rect8"
       width="8.2020836"
       height="8.2020836"
       x="59.795834"
       y="17.4625"
       rx="0.88314468"
       ry="3.5599584e-08" />
    <rect
       style="fill:#008000;fill-opacity:1;stroke:none;stroke-width:1.85073;stroke-dasharray:none"
       id="rect9"
       width="8.2020836"
       height="8.2020836"
       x="59.795834"
       y="25.929167"
       rx="0.88314468"
       ry="3.5599584e-08" />
    <rect
       style="fill:#800000;fill-opacity:1;stroke:none;stroke-width:1.85073;stroke-dasharray:none"
       id="rect10"
       width="8.2020836"
       height="8.2020836"
       x="59.795834"
       y="34.395832"
       rx="0.88314468"
       ry="3.5599584e-08" />
    <rect
       style="fill:#00ff00;fill-opacity:1;stroke:none;stroke-width:1.85073;stroke-dasharray:none"
       id="rect11"
       width="8.2020836"
       height="8.2020836"
       x="68.262497"
       y="34.395832"
       rx="0.88314468"
       ry="3.5599584e-08" />
    <rect
       style="fill:#d45500;fill-opacity:1;stroke:none;stroke-width:1.85073;stroke-dasharray:none"
       id="rect12"
       width="8.2020836"
       height="8.2020836"
       x="68.262497"
       y="25.929167"
       rx="0.88314468"
       ry="3.5599584e-08" />
    <rect
       style="fill:#005500;fill-opacity:1;stroke:none;stroke-width:1.85073;stroke-dasharray:none"
       id="rect13"
       width="8.2020836"
       height="8.2020836"
       x="59.795834"
       y="42.862499"
       rx="0.88314468"
       ry="3.5599584e-08" />
    <rect
       style="fill:#8dd35f;fill-opacity:1;stroke:none;stroke-width:1.85073;stroke-dasharray:none"
       id="rect14"
       width="8.2020836"
       height="8.2020836"
       x="68.262497"
       y="42.862499"
       rx="0.88314468"
       ry="3.5599584e-08" />
    <rect
       style="fill:#d4ff2a;fill-opacity:1;stroke:none;stroke-width:1.85073;stroke-dasharray:none"
       id="rect15"
       width="8.2020836"
       height="8.2020836"
       x="59.795834"
       y="51.329166"
       rx="0.88314468"
       ry="3.5599584e-08" />
    <rect
       style="fill:#00ff00;fill-opacity:1;stroke:none;stroke-width:1.85073;stroke-dasharray:none"
       id="rect16"
       width="8.2020836"
       height="8.2020836"
       x="68.262497"
       y="51.329166"
       rx="0.88314468"
       ry="3.5599584e-08" />
    <rect
       style="fill:#00ffff;fill-opacity:1;stroke:none;stroke-width:1.85073;stroke-dasharray:none"
       id="rect17"
       width="8.2020836"
       height="8.2020836"
       x="59.795834"
       y="59.795834"
       rx="0.88314468"
       ry="3.5599584e-08" />
    <rect
       style="fill:#ffff00;fill-opacity:1;stroke:none;stroke-width:1.85073;stroke-dasharray:none"
       id="rect18"
       width="8.2020836"
       height="8.2020836"
       x="59.795834"
       y="68.262497"
       rx="0.88314468"
       ry="3.5599584e-08" />
    <rect
       style="fill:#000080;fill-opacity:1;stroke:none;stroke-width:1.85073;stroke-dasharray:none"
       id="rect19"
       width="8.2020836"
       height="8.2020836"
       x="68.262497"
       y="68.262497"
       rx="0.88314468"
       ry="3.5599584e-08" />
    <rect
       style="fill:#0000ff;fill-opacity:1;stroke:none;stroke-width:1.85073;stroke-dasharray:none"
       id="rect20"
       width="8.2020836"
       height="8.2020836"
       x="68.262497"
       y="59.795834"
       rx="0.88314468"
       ry="3.5599584e-08" />
    <rect
       style="fill:#ff00ff;fill-opacity:1;stroke:none;stroke-width:1.85073;stroke-dasharray:none"
       id="rect21"
       width="8.2020836"
       height="8.2020836"
       x="59.795834"
       y="76.729164"
       rx="0.88314468"
       ry="3.5599584e-08" />
    <rect
       style="fill:#aad400;fill-opacity:1;stroke:none;stroke-width:1.85073;stroke-dasharray:none"
       id="rect22"
       width="8.2020836"
       height="8.2020836"
       x="59.795834"
       y="85.195831"
       rx="0.88314468"
       ry="3.5599584e-08" />
    <rect
       style="fill:#aa0000;fill-opacity:1;stroke:none;stroke-width:1.85073;stroke-dasharray:none"
       id="rect23"
       width="8.2020836"
       height="8.2020836"
       x="68.262497"
       y="85.195831"
       rx="0.88314468"
       ry="3.5599584e-08" />
    <rect
       style="fill:#00ffff;fill-opacity:1;stroke:none;stroke-width:1.85073;stroke-dasharray:none"
       id="rect24"
       width="8.2020836"
       height="8.2020836"
       x="68.262497"
       y="76.729164"
       rx="0.88314468"
       ry="3.5599584e-08" />
    <rect
       style="fill:#008000;fill-opacity:1;stroke:none;stroke-width:1.85073;stroke-dasharray:none"
       id="rect25"
       width="8.2020836"
       height="8.2020836"
       x="76.729164"
       y="59.795834"
       rx="0.88314468"
       ry="3.5599584e-08" />
    <rect
       style="fill:#445500;fill-opacity:1;stroke:none;stroke-width:1.85073;stroke-dasharray:none"
       id="rect26"
       width="8.2020836"
       height="8.2020836"
       x="76.729164"
       y="68.262497"
       rx="0.88314468"
       ry="3.5599584e-08" />
    <rect
       style="fill:#71c837;fill-opacity:1;stroke:none;stroke-width:1.85073;stroke-dasharray:none"
       id="rect27"
       width="8.2020836"
       height="8.2020836"
       x="85.195831"
       y="68.262497"
       rx="0.88314468"
       ry="3.5599584e-08" />
    <rect
       style="fill:#d45500;fill-opacity:1;stroke:none;stroke-width:1.85073;stroke-dasharray:none"
       id="rect28"
       width="8.2020836"
       height="8.2020836"
       x="85.195831"
       y="59.795834"
       rx="0.88314468"
       ry="3.5599584e-08" />
    <rect
       style="fill:#008000;fill-opacity:1;stroke:none;stroke-width:1.85073;stroke-dasharray:none"
       id="rect29"
       width="8.2020836"
       height="8.2020836"
       x="76.729164"
       y="76.729164"
       rx="0.88314468"
       ry="3.5599584e-08" />
    <rect
       style="fill:#44aa00;fill-opacity:1;stroke:none;stroke-width:1.85073;stroke-dasharray:none"
       id="rect30"
       width="8.2020836"
       height="8.2020836"
       x="76.729164"
       y="85.195831"
       rx="0.88314468"
       ry="3.5599584e-08" />
    <rect
       style="fill:#ff6600;fill-opacity:1;stroke:none;stroke-width:1.85073;stroke-dasharray:none"
       id="rect31"
       width="8.2020836"
       height="8.2020836"
       x="85.195831"
       y="85.195831"
       rx="0.88314468"
       ry="3.5599584e-08" />
    <rect
       style="fill:#55d400;fill-opacity:1;stroke:none;stroke-width:1.85073;stroke-dasharray:none"
       id="rect32"
       width="8.2020836"
       height="8.2020836"
       x="85.195831"
       y="76.729164"
       rx="0.88314468"
       ry="3.5599584e-08" />
    <rect
       style="fill:#ffb380;fill-opacity:1;stroke:none;stroke-width:1.85073;stroke-dasharray:none"
       id="rect33"
       width="8.2020836"
       height="8.2020836"
       x="42.862499"
       y="59.795834"
       rx="0.88314468"
       ry="3.5599584e-08" />
    <rect
       style="fill:#aad400;fill-opacity:1;stroke:none;stroke-width:1.85073;stroke-dasharray:none"
       id="rect34"
       width="8.2020836"
       height="8.2020836"
       x="42.862499"
       y="68.262497"
       rx="0.88314468"
       ry="3.5599584e-08" />
    <rect
       style="fill:#decd87;fill-opacity:1;stroke:none;stroke-width:1.85073;stroke-dasharray:none"
       id="rect35"
       width="8.2020836"
       height="8.2020836"
       x="51.329163"
       y="68.262497"
       rx="0.88314468"
       ry="3.5599584e-08" />
    <rect
       style="fill:#008080;fill-opacity:1;stroke:none;stroke-width:1.85073;stroke-dasharray:none"
       id="rect36"
       width="8.2020836"
       height="8.2020836"
       x="51.329163"
       y="59.795834"
       rx="0.88314468"
       ry="3.5599584e-08" />
    <rect
       style="fill:#008000;fill-opacity:1;stroke:none;stroke-width:1.85073;stroke-dasharray:none"
       id="rect37"
       width="8.2020836"
       height="8.2020836"
       x="42.862499"
       y="76.729164"
       rx="0.88314468"
       ry="3.5599584e-08" />
    <rect
       style="fill:#ff00ff;fill-opacity:1;stroke:none;stroke-width:1.85073;stroke-dasharray:none"
       id="rect38"
       width="8.2020836"
       height="8.2020836"
       x="42.862499"
       y="85.195831"
       rx="0.88314468"
       ry="3.5599584e-08" />
    <rect
       style="fill:#808000;fill-opacity:1;stroke:none;stroke-width:1.85073;stroke-dasharray:none"
       id="rect39"
       width="8.2020836"
       height="8.2020836"
       x="51.329163"
       y="85.195831"
       rx="0.88314468"
       ry="3.5599584e-08" />
    <rect
       style="fill:#800080;fill-opacity:1;stroke:none;stroke-width:1.85073;stroke-dasharray:none"
       id="rect40"
       width="8.2020836"
       height="8.2020836"
       x="51.329163"
       y="76.729164"
       rx="0.88314468"
       ry="3.5599584e-08" />
    <rect
       style="fill:#aa8800;fill-opacity:1;stroke:none;stroke-width:1.85073;stroke-dasharray:none"
       id="rect41"
       width="8.2020836"
       height="8.2020836"
       x="51.329163"
       y="42.862495"
       rx="0.88314468"
       ry="3.5599584e-08" />
    <rect
       style="fill:#d4aa00;fill-opacity:1;stroke:none;stroke-width:1.85073;stroke-dasharray:none"
       id="rect42"
       width="8.2020836"
       height="8.2020836"
       x="51.329163"
       y="34.395832"
       rx="0.88314468"
       ry="3.5599584e-08" />
    <rect
       style="fill:#a02c2c;fill-opacity:1;stroke:none;stroke-width:1.85073;stroke-dasharray:none"
       id="rect43"
       width="8.2020836"
       height="8.2020836"
       x="51.329163"
       y="51.329163"
       rx="0.88314468"
       ry="3.5599584e-08" />
    <rect
       style="fill:#550000;fill-opacity:1;stroke:none;stroke-width:1.85073;stroke-dasharray:none"
       id="rect44"
       width="8.2020836"
       height="8.2020836"
       x="76.729164"
       y="34.395832"
       rx="0.88314468"
       ry="3.5599584e-08" />
    <rect
       style="fill:#aad400;fill-opacity:1;stroke:none;stroke-width:1.85073;stroke-dasharray:none"
       id="rect45"
       width="8.2020836"
       height="8.2020836"
       x="76.729164"
       y="42.862495"
       rx="0.88314468"
       ry="3.5599584e-08" />
    <rect
       style="fill:#ff00ff;fill-opacity:1;stroke:none;stroke-width:1.85073;stroke-dasharray:none"
       id="rect46"
       width="8.2020836"
       height="8.2020836"
       x="76.729164"
       y="51.329163"
       rx="0.88314468"
       ry="3.5599584e-08" />
    <rect
       style="fill:#7fff2a;fill-opacity:1;stroke:none;stroke-width:1.85073;stroke-dasharray:none"
       id="rect47"
       width="8.2020836"
       height="8.2020836"
       x="93.662498"
       y="68.262497"
       rx="0.88314468"
       ry="3.5599584e-08" />
    <rect
       style="fill:#00aa00;fill-opacity:1;stroke:none;stroke-width:1.85073;stroke-dasharray:none"
       id="rect48"
       width="8.2020836"
       height="8.2020836"
       x="93.662498"
       y="85.195831"
       rx="0.88314468"
       ry="3.5599584e-08" />
    <rect
       style="fill:#71c837;fill-opacity:1;stroke:none;stroke-width:1.85073;stroke-dasharray:none"
       id="rect49"
       width="8.2020836"
       height="8.2020836"
       x="93.662498"
       y="76.729164"
       rx="0.88314468"
       ry="3.5599584e-08" />
    <rect
       style="fill:#44aa00;fill-opacity:1;stroke:none;stroke-width:1.85073;stroke-dasharray:none"
       id="rect50"
       width="8.2020836"
       height="8.2020836"
       x="76.729164"
       y="93.662498"
       rx="0.88314468"
       ry="3.5599584e-08" />
    <rect
       style="fill:#ff0000;fill-opacity:1;stroke:none;stroke-width:1.85073;stroke-dasharray:none"
       id="rect51"
       width="8.2020836"
       height="8.2020836"
       x="85.195831"
       y="93.662498"
       rx="0.88314468"
       ry="3.5599584e-08" />
    <rect
       style="fill:#ff8080;fill-opacity:1;stroke:none;stroke-width:1.85073;stroke-dasharray:none"
       id="rect52"
       width="8.2020836"
       height="8.2020836"
       x="93.662498"
       y="93.662498"
       rx="0.88314468"
       ry="3.5599584e-08" />
    <rect
       style="fill:#7c916f;fill-opacity:1;stroke:none;stroke-width:1.85073;stroke-dasharray:none"
       id="rect53"
       width="8.2020836"
       height="8.2020836"
       x="102.12917"
       y="93.662498"
       rx="0.88314468"
       ry="3.5599584e-08" />
    <rect
       style="fill:#ff6600;fill-opacity:1;stroke:none;stroke-width:1.85073;stroke-dasharray:none"
       id="rect54"
       width="8.2020836"
       height="8.2020836"
       x="102.12917"
       y="85.195831"
       rx="0.88314468"
       ry="3.5599584e-08" />
    <rect
       style="fill:#a7ac93;fill-opacity:1;stroke:none;stroke-width:1.85073;stroke-dasharray:none"
       id="rect55"
       width="8.2020836"
       height="8.2020836"
       x="85.195831"
       y="51.329166"
       rx="0.88314468"
       ry="3.5599584e-08" />
    <rect
       style="fill:#00ffff;fill-opacity:1;stroke:none;stroke-width:1.85073;stroke-dasharray:none"
       id="rect56"
       width="8.2020836"
       height="8.2020836"
       x="25.929167"
       y="76.729164"
       rx="0.88314468"
       ry="3.5599584e-08" />
    <rect
       style="fill:#ffd42a;fill-opacity:1;stroke:none;stroke-width:1.85073;stroke-dasharray:none"
       id="rect57"
       width="8.2020836"
       height="8.2020836"
       x="34.395828"
       y="76.729164"
       rx="0.88314468"
       ry="3.5599584e-08" />
    <rect
       style="fill:#decd87;fill-opacity:1;stroke:none;stroke-width:1.85073;stroke-dasharray:none"
       id="rect58"
       width="8.2020836"
       height="8.2020836"
       x="34.395832"
       y="68.262497"
       rx="0.88314468"
       ry="3.5599584e-08" />
    <rect
       style="fill:#ff00ff;fill-opacity:1;stroke:none;stroke-width:1.85073;stroke-dasharray:none"
       id="rect59"
       width="8.2020836"
       height="8.2020836"
       x="34.395832"
       y="59.795834"
       rx="0.88314468"
       ry="3.5599584e-08" />
    <rect
       style="fill:#ff5555;fill-opacity:1;stroke:none;stroke-width:1.85073;stroke-dasharray:none"
       id="rect60"
       width="8.2020836"
       height="8.2020836"
       x="42.862499"
       y="51.329163"
       rx="0.88314468"
       ry="3.5599584e-08" />
    <rect
       style="fill:#800080;fill-opacity:1;stroke:none;stroke-width:1.85073;stroke-dasharray:none"
       id="rect61"
       width="8.2020836"
       height="8.2020836"
       x="42.862499"
       y="42.862495"
       rx="0.88314468"
       ry="3.5599584e-08" />
    <rect
       style="fill:#0000ff;fill-opacity:1;stroke:none;stroke-width:1.85073;stroke-dasharray:none"
       id="rect62"
       width="8.2020836"
       height="8.2020836"
       x="34.395832"
       y="85.195831"
       rx="0.88314468"
       ry="3.5599584e-08" />
    <rect
       style="fill:#808000;fill-opacity:1;stroke:none;stroke-width:1.85073;stroke-dasharray:none"
       id="rect63"
       width="8.2020836"
       height="8.2020836"
       x="51.329163"
       y="25.929167"
       rx="0.88314468"
       ry="3.5599584e-08" />
    <path
       d="M 0.39687483,0.39687483 V 135.86352 M 8.8635408,0.39687483 V 135.86352 M 17.330206,0.39687483 V 135.86352 M 25.796874,0.39687483 V 135.86352 M 34.26354,0.39687483 V 135.86352 M 42.730206,0.39687483 V 135.86352 M 51.196873,0.39687483 V 135.86352 M 59.663539,0.39687483 V 135.86352 M 68.130205,0.39687483 V 135.86352 M 76.596874,0.39687483 V 135.86352 M 85.063534,0.39687483 V 135.86352 M 93.530204,0.39687483 V 135.86352 M 101.99687,0.39687483 V 135.86352 M 110.46353,0.39687483 V 135.86352 M 118.9302,0.39687483 V 135.86352 M 127.39686,0.39687483 V 135.86352 M 0.39687483,0.39687483 H 135.86353 M 0.39687483,8.8635408 H 135.86353 M 0.39687483,17.330207 H 135.86353 M 0.39687483,25.796874 H 135.86353 M 0.39687483,34.26354 H 135.86353 M 0.39687483,42.730206 H 135.86353 M 0.39687483,51.196873 H 135.86353 M 0.39687483,59.663539 H 135.86353 M 0.39687483,68.130205 H 135.86353 M 0.39687483,76.596871 H 135.86353 M 0.39687483,85.063538 H 135.86353 M 0.39687483,93.530204 H 135.86353 M 0.39687483,101.99686 H 135.86353 M 0.39687483,110.46352 H 135.86353 M 0.39687483,118.93019 H 135.86353 M 0.39687483,127.39685 H 135.86353"
       style="fill:none;stroke:#f9f9f9;stroke-width:0.264583px"
       id="path3" />
    <path
       d="M 135.73124,0.39687483 V 135.86352 M 127.26457,0.39687483 V 135.86352 M 118.79791,0.39687483 V 135.86352 M 110.33124,0.39687483 V 135.86352 M 101.86457,0.39687483 V 135.86352 M 93.397911,0.39687483 V 135.86352 M 84.931244,0.39687483 V 135.86352 M 76.464578,0.39687483 V 135.86352 M 67.997912,0.39687483 V 135.86352 M 59.531246,0.39687483 V 135.86352 M 51.064579,0.39687483 V 135.86352 M 42.597913,0.39687483 V 135.86352 M 34.131243,0.39687483 V 135.86352 M 25.664583,0.39687483 V 135.86352 M 17.197913,0.39687483 V 135.86352 M 8.7312533,0.39687483 V 135.86352 M 135.73124,0.39687483 H 0.26458333 M 135.73124,8.8635408 H 0.26458333 M 135.73124,17.330206 H 0.26458333 M 135.73124,25.796873 H 0.26458333 M 135.73124,34.263539 H 0.26458333 M 135.73124,42.730204 H 0.26458333 M 135.73124,51.196874 H 0.26458333 M 135.73124,59.663534 H 0.26458333 M 135.73124,68.130204 H 0.26458333 M 135.73124,76.596874 H 0.26458333 M 135.73124,85.063534 H 0.26458333 M 135.73124,93.530204 H 0.26458333 M 135.73124,101.99686 H 0.26458333 M 135.73124,110.46352 H 0.26458333 M 135.73124,118.93019 H 0.26458333 M 135.73124,127.39685 H 0.26458333"
       style="fill:#99ff55;stroke:#f9f9f9;stroke-width:0.264583px"
       id="path3-1" />
    <circle
       style="fill:#f9f9f9;fill-opacity:1;stroke:#f9f9f9;stroke-width:0"
       id="path4"
       cx="68.262505"
       cy="8.9958334"
       r="4.2333331" />
    <circle
       style="fill:#f9f9f9;fill-opacity:1;stroke:#f9f9f9;stroke-width:0"
       id="path4-6"
       cx="25.929169"
       cy="85.195831"
       r="4.2333331" />
    <circle
       style="fill:#f9f9f9;fill-opacity:1;stroke:#f9f9f9;stroke-width:0"
       id="path4-6-2"
       cx="110.59584"
       cy="102.12917"
       r="4.2333331" />
    <path
       style="fill:#f9f9f9;fill-opacity:1;stroke:#f9f9f9;stroke-width:2.11666667;stroke-dasharray:none"
       d="M 67.997911,8.7312433 25.929168,85.195832"
       id="path5" />
    <path
       style="fill:#f9f9f9;fill-opacity:1;stroke:#f9f9f9;stroke-width:2.11667;stroke-dasharray:none"
       d="M 68.262504,8.9958332 110.59584,102.12917"
       id="path6" />
    <path
       style="fill:#f9f9f9;fill-opacity:1;stroke:#f9f9f9;stroke-width:2.11667;stroke-dasharray:none"
       d="M 25.929168,85.195832 110.59584,102.12917"
       id="path7" />
  </g>
</svg>
